<?xml version="1.0" encoding="UTF-8"?>
<svg xmlns="http://www.w3.org/2000/svg" id="Smart_control" data-name="Smart control" viewBox="0 0 64 64" width="512" height="512"><path d="M61,20H30V10a3,3,0,0,0-3-3H9a3,3,0,0,0-3,3v7.807L2.215,27.27A2.969,2.969,0,0,0,2,28.385V38.667a5.032,5.032,0,0,0,1,3l.66.879a5.064,5.064,0,0,1,.924,3.878L3.006,60.892A1,1,0,0,0,4,62H15a1,1,0,0,0,.993-1.121L14.128,45.616a1,1,0,0,1,.152-.734L14.868,44H18V61a1,1,0,0,0,1,1h4a1,1,0,0,0,1-1V44h3a3,3,0,0,0,3-3V38H56V61a1,1,0,0,0,1,1h4a1,1,0,0,0,1-1V21A1,1,0,0,0,61,20ZM56,30H51V28H49v2H30V26H56ZM14,40.486a3.982,3.982,0,0,1-.672,2.219l-.712,1.068a2.945,2.945,0,0,0-.464,2.143L13.871,60H5.115L6.564,46.7a7.028,7.028,0,0,0-1.3-5.351L4.6,40.467a3.018,3.018,0,0,1-.6-1.8V28.385a.984.984,0,0,1,.072-.371L6,23.193v6.4H6A1.987,1.987,0,0,0,6.586,31l1.155,1.155a2,2,0,0,0,2.443.3L13.3,30.585A.811.811,0,0,1,14.415,31.7l-2.272,3.787a1,1,0,0,0,.15,1.222l.536.536A3.974,3.974,0,0,1,14,40.071Zm.259-4.641,1.871-3.117a2.812,2.812,0,0,0-3.858-3.858L12,29.034V13H24V36H14.4C14.351,35.949,14.309,35.9,14.259,35.845ZM22,60H20V44h2Zm6-19a1,1,0,0,1-1,1H15.794A6,6,0,0,0,16,40.486v-.415A5.985,5.985,0,0,0,15.627,38H25a1,1,0,0,0,1-1V12a1,1,0,0,0-1-1H11a1,1,0,0,0-1,1V30.234l-.845.507L8,29.586V10A1,1,0,0,1,9,9H27a1,1,0,0,1,1,1Zm23-5V34H49v2H30V32H56v4Zm9,24H58V25a1,1,0,0,0-1-1H30V22H60Z"/><path d="M40.586,14.586a2,2,0,1,0,2.828,0A2,2,0,0,0,40.586,14.586Z"/><path d="M46.243,11.757a6.007,6.007,0,0,0-8.486,0l1.414,1.414a4.007,4.007,0,0,1,5.658,0Z"/><path d="M49.071,8.929a10,10,0,0,0-14.142,0l1.414,1.414a8,8,0,0,1,11.314,0Z"/><path d="M50.485,7.515,51.9,6.1a14.014,14.014,0,0,0-19.8,0l1.414,1.414A12.013,12.013,0,0,1,50.485,7.515Z"/><path d="M51,48h-.219l-1.432-5.728A3,3,0,0,0,46.438,40H34.562a3,3,0,0,0-2.911,2.272L30.219,48H30a3,3,0,0,0-3,3v3a3,3,0,0,0,2,2.816V60a2,2,0,0,0,2,2h3a2,2,0,0,0,2-2V57h9v3a2,2,0,0,0,2,2h3a2,2,0,0,0,2-2V56.816A3,3,0,0,0,54,54V51A3,3,0,0,0,51,48Zm-2,3a1,1,0,1,1-1-1A1,1,0,0,1,49,51ZM33.591,42.758A1,1,0,0,1,34.562,42H46.438a1,1,0,0,1,.971.758L48.719,48H32.281ZM34,51a1,1,0,1,1-1-1A1,1,0,0,1,34,51Zm0,9H31V57h3Zm13,0V57h3v3Zm5-6a1,1,0,0,1-1,1H30a1,1,0,0,1-1-1V51a1,1,0,0,1,1-1h.184A2.966,2.966,0,0,0,30,51a3,3,0,0,0,6,0,2.966,2.966,0,0,0-.184-1h9.368A2.966,2.966,0,0,0,45,51a3,3,0,0,0,6,0,2.966,2.966,0,0,0-.184-1H51a1,1,0,0,1,1,1Z"/><path d="M18,17a4,4,0,1,0,4,4A4,4,0,0,0,18,17Zm0,6a2,2,0,1,1,2-2A2,2,0,0,1,18,23Z"/></svg>
