<?xml version="1.0"?>
<svg xmlns="http://www.w3.org/2000/svg" width="512" height="512" viewBox="0 0 512 512"><g><path d="M496,256H96V240a8,8,0,0,0-8-8H80V208H96v8a8,8,0,0,0,16,0V184a8,8,0,0,0-16,0v8H80V96a32.03,32.03,0,0,1,32-32h32a32.03,32.03,0,0,1,32,32v.68A48.069,48.069,0,0,0,136,144a8,8,0,0,0,8,8h80a8,8,0,0,0,8-8,48.069,48.069,0,0,0-40-47.32V96a48.051,48.051,0,0,0-48-48H112A48.051,48.051,0,0,0,64,96V232H56a8,8,0,0,0-8,8v16H16a8,8,0,0,0-8,8v24a8,8,0,0,0,8,8H40v96a48.069,48.069,0,0,0,40,47.32V456a8,8,0,0,0,16,0V440H416v16a8,8,0,0,0,16,0V439.32A48.069,48.069,0,0,0,472,392V296h24a8,8,0,0,0,8-8V264A8,8,0,0,0,496,256ZM184,112a32.058,32.058,0,0,1,30.99,24H153.01A32.058,32.058,0,0,1,184,112ZM64,248H80v8H64ZM456,392a32.03,32.03,0,0,1-32,32H88a32.03,32.03,0,0,1-32-32V296H456Zm32-112H24v-8H488Z"/><path d="M80,328h64a8,8,0,0,0,0-16H80a8,8,0,0,0,0,16Z"/><path d="M168,328h8a8,8,0,0,0,0-16h-8a8,8,0,0,0,0,16Z"/></g></svg>
