<?xml version="1.0"?>
<svg xmlns="http://www.w3.org/2000/svg" xmlns:xlink="http://www.w3.org/1999/xlink" xmlns:svgjs="http://svgjs.com/svgjs" version="1.1" width="512" height="512" x="0" y="0" viewBox="0 0 479 479.9938" style="enable-background:new 0 0 512 512" xml:space="preserve" class=""><g><linearGradient xmlns="http://www.w3.org/2000/svg" id="a"><stop stop-opacity="1" stop-color="#4761ac" offset="0"/><stop stop-opacity="1" stop-color="#144a86" offset="1"/></linearGradient><linearGradient xmlns="http://www.w3.org/2000/svg" xmlns:xlink="http://www.w3.org/1999/xlink" id="b" gradientUnits="userSpaceOnUse" x1="-103.5031" x2="418.0329" xlink:href="#a" y1="239.993802" y2="239.993802"/><linearGradient xmlns="http://www.w3.org/2000/svg" xmlns:xlink="http://www.w3.org/1999/xlink" id="c" gradientUnits="userSpaceOnUse" x1="-103.5031" x2="418.0329" xlink:href="#a" y1="223.993802" y2="223.993802"/><linearGradient xmlns="http://www.w3.org/2000/svg" xmlns:xlink="http://www.w3.org/1999/xlink" id="d" gradientUnits="userSpaceOnUse" x1="-103.5031" x2="418.0329" xlink:href="#a" y1="335.993802" y2="335.993802"/><linearGradient xmlns="http://www.w3.org/2000/svg" xmlns:xlink="http://www.w3.org/1999/xlink" id="e" gradientUnits="userSpaceOnUse" x1="-103.5031" x2="418.0329" xlink:href="#a" y1="415.993802" y2="415.993802"/><linearGradient xmlns="http://www.w3.org/2000/svg" xmlns:xlink="http://www.w3.org/1999/xlink" id="f" gradientUnits="userSpaceOnUse" x1="-103.5031" x2="418.0329" xlink:href="#a" y1="375.993802" y2="375.993802"/><linearGradient xmlns="http://www.w3.org/2000/svg" xmlns:xlink="http://www.w3.org/1999/xlink" id="g" gradientUnits="userSpaceOnUse" x1="-103.5031" x2="418.0329" xlink:href="#a" y1="111.993802" y2="111.993802"/><linearGradient xmlns="http://www.w3.org/2000/svg" xmlns:xlink="http://www.w3.org/1999/xlink" id="h" gradientUnits="userSpaceOnUse" x1="-103.5031" x2="418.0329" xlink:href="#a" y1="215.993802" y2="215.993802"/><linearGradient xmlns="http://www.w3.org/2000/svg" xmlns:xlink="http://www.w3.org/1999/xlink" id="i" gradientUnits="userSpaceOnUse" x1="-103.5031" x2="418.0329" xlink:href="#a" y1="199.993802" y2="199.993802"/><linearGradient xmlns="http://www.w3.org/2000/svg" xmlns:xlink="http://www.w3.org/1999/xlink" id="j" gradientUnits="userSpaceOnUse" x1="-103.5031" x2="418.0329" xlink:href="#a" y1="359.993802" y2="359.993802"/><path xmlns="http://www.w3.org/2000/svg" d="m317.007812 105.394531-152-104c-2.71875-1.859375-6.300781-1.859375-9.023437 0l-152 104c-2.179687 1.488281-3.484375 3.957031-3.488281 6.597657v360c0 4.417968 3.582031 8 8 8h304c4.417968 0 8-3.582032 8-8v-360c0-2.640626-1.304688-5.109376-3.488282-6.597657zm-156.511718-87.703125 144 98.519532v20.582031l-139.488282-95.398438c-2.71875-1.859375-6.300781-1.859375-9.023437 0l-139.488281 95.398438v-20.582031zm144 446.300782h-288v-307.78125l144-98.519532 144 98.519532zm0 0" fill="url(#b)" data-original="url(#b)" style="" class=""/><path xmlns="http://www.w3.org/2000/svg" d="m32.496094 167.992188v112c0 4.417968 3.582031 8 8 8h240c4.417968 0 8-3.582032 8-8v-112c0-4.417969-3.582032-8-8-8h-240c-4.417969 0-8 3.582031-8 8zm16 8h224v96h-224zm0 0" fill="url(#c)" data-original="url(#c)" style=""/><path xmlns="http://www.w3.org/2000/svg" d="m248.496094 183.992188h-16v8h-8v40h16v8h-16v16h8v8h16v-8h8v-40h-16v-8h16v-16h-8zm0 0" fill="url(#c)" data-original="url(#c)" style=""/><path xmlns="http://www.w3.org/2000/svg" d="m88.496094 303.992188h-48c-4.417969 0-8 3.582031-8 8v48c0 4.417968 3.582031 8 8 8h48c4.417968 0 8-3.582032 8-8v-48c0-4.417969-3.582032-8-8-8zm-8 48h-32v-32h32zm0 0" fill="url(#d)" data-original="url(#d)" style=""/><path xmlns="http://www.w3.org/2000/svg" d="m168.496094 303.992188h-48c-4.417969 0-8 3.582031-8 8v48c0 4.417968 3.582031 8 8 8h48c4.417968 0 8-3.582032 8-8v-48c0-4.417969-3.582032-8-8-8zm-8 48h-32v-32h32zm0 0" fill="url(#d)" data-original="url(#d)" style=""/><path xmlns="http://www.w3.org/2000/svg" d="m88.496094 383.992188h-48c-4.417969 0-8 3.582031-8 8v48c0 4.417968 3.582031 8 8 8h48c4.417968 0 8-3.582032 8-8v-48c0-4.417969-3.582032-8-8-8zm-8 48h-32v-32h32zm0 0" fill="url(#e)" data-original="url(#e)" style=""/><path xmlns="http://www.w3.org/2000/svg" d="m168.496094 383.992188h-48c-4.417969 0-8 3.582031-8 8v48c0 4.417968 3.582031 8 8 8h48c4.417968 0 8-3.582032 8-8v-48c0-4.417969-3.582032-8-8-8zm-8 48h-32v-32h32zm0 0" fill="url(#e)" data-original="url(#e)" style=""/><path xmlns="http://www.w3.org/2000/svg" d="m280.496094 303.992188h-80c-4.417969 0-8 3.582031-8 8v128c0 4.417968 3.582031 8 8 8h80c4.417968 0 8-3.582032 8-8v-128c0-4.417969-3.582032-8-8-8zm-8 128h-64v-112h64zm0 0" fill="url(#f)" data-original="url(#f)" style=""/><path xmlns="http://www.w3.org/2000/svg" d="m128.496094 111.992188c0 17.675781 14.328125 32 32 32 17.675781 0 32-14.324219 32-32 0-17.671876-14.324219-32-32-32-17.671875 0-32 14.328124-32 32zm48 0c0 8.839843-7.164063 16-16 16-8.835938 0-16-7.160157-16-16 0-8.835938 7.164062-16 16-16 8.835937 0 16 7.164062 16 16zm0 0" fill="url(#g)" data-original="url(#g)" style=""/><path xmlns="http://www.w3.org/2000/svg" d="m112.496094 191.992188h-40c-4.417969 0-8 3.582031-8 8v32c0 4.417968 3.582031 8 8 8 4.417968 0 8-3.582032 8-8v-24h32c4.417968 0 8-3.582032 8-8 0-4.417969-3.582032-8-8-8zm0 0" fill="url(#h)" data-original="url(#h)" style=""/><path xmlns="http://www.w3.org/2000/svg" d="m160.496094 191.992188h-16c-4.417969 0-8 3.582031-8 8 0 4.417968 3.582031 8 8 8h16c4.417968 0 8-3.582032 8-8 0-4.417969-3.582032-8-8-8zm0 0" fill="url(#i)" data-original="url(#i)" style=""/><path xmlns="http://www.w3.org/2000/svg" d="m232.496094 351.992188h8v24c0 4.417968 3.582031 8 8 8 4.417968 0 8-3.582032 8-8v-32c0-4.417969-3.582032-8-8-8h-16c-4.417969 0-8 3.582031-8 8 0 4.417968 3.582031 8 8 8zm0 0" fill="url(#j)" data-original="url(#j)" style=""/></g></svg>
