<svg id="Capa_1" enable-background="new 0 0 511.978 511.978" height="512" viewBox="0 0 511.978 511.978" width="512" xmlns="http://www.w3.org/2000/svg"><g id="XMLID_210_"><path id="XMLID_240_" d="m501.977 443.978h-39.904v-179.667l5.056 3.575c1.699 1.202 3.72 1.835 5.773 1.835.563 0 1.129-.048 1.691-.144 2.613-.449 4.942-1.918 6.474-4.083l29.075-41.119c3.188-4.51 2.118-10.75-2.392-13.938l-62.354-44.091v-102.368c0-5.522-4.478-10-10-10h-64c-5.522 0-10 4.478-10 10v42.971l-72.317-51.136c-3.461-2.447-8.086-2.447-11.547 0l-218.673 154.624c-4.51 3.188-5.58 9.429-2.392 13.938l29.075 41.119c1.531 2.165 3.86 3.634 6.474 4.083 2.611.443 5.299-.159 7.465-1.691l4.466-3.158v179.25h-39.97c-5.522 0-10 4.478-10 10v48c0 5.522 4.478 10 10 10h438c5.522 0 10-4.478 10-10v-48c0-5.523-4.478-10-10-10zm-120.581-370h44v78.226l-44-31.113zm-285.296 171.804-17.528-24.789 204.733-144.768 204.733 144.769-17.528 24.789-181.432-128.293c-1.73-1.224-3.752-1.835-5.773-1.835s-4.043.611-5.773 1.835zm27.847 4.804 159.357-112.683 158.768 112.266v193.809h-174.125v-150c0-5.522-4.478-10-10-10h-96c-5.522 0-10 4.478-10 10v150h-28zm124 113.392h-11.786c-5.522 0-10 4.478-10 10s4.478 10 10 10h11.786v60h-76v-140h76zm244.03 128h-418v-28h418z"/><path id="XMLID_251_" d="m307.051 319.082c-12.139 12.139-12.139 31.82 0 43.958l43.959 43.959 43.958-43.959c12.139-12.139 12.139-31.819 0-43.958-12.139-12.139-31.82-12.139-43.958 0-12.139-12.139-31.82-12.139-43.959 0z"/><path id="XMLID_255_" d="m78.81 145.834c2.56 0 5.118-.977 7.071-2.929l57.023-57.023c9.505-9.504 14.739-22.142 14.739-35.583s-5.234-26.078-14.739-35.583c-17.408-17.406-44.5-19.372-64.094-5.888-19.591-13.486-46.687-11.518-64.095 5.888-19.62 19.621-19.619 51.546 0 71.166l57.023 57.023c1.953 1.952 4.512 2.929 7.072 2.929zm-49.953-116.976c5.912-5.912 13.675-8.867 21.44-8.867s15.53 2.957 21.44 8.867c3.906 3.904 10.236 3.905 14.143 0 11.823-11.824 31.06-11.821 42.881 0 5.728 5.727 8.882 13.342 8.882 21.44 0 8.1-3.154 15.714-8.882 21.44l-49.951 49.953-49.953-49.952c-11.822-11.822-11.822-31.058 0-42.881z"/></g></svg>