<?xml version="1.0"?>
<svg xmlns="http://www.w3.org/2000/svg" id="Outline" viewBox="0 0 512 512" width="512" height="512"><path d="M168.84,496H343.16a75.943,75.943,0,0,0,75.679-80.92l-10.4-175.888a152.745,152.745,0,0,0-304.883.047L93.164,415.033A75.943,75.943,0,0,0,168.84,496Zm-59.707-79.976L119.526,240.23a136.746,136.746,0,0,1,272.945-.046l10.4,175.887A59.944,59.944,0,0,1,343.16,480H168.84a59.945,59.945,0,0,1-59.707-63.976Z"/><path d="M256,408A112,112,0,1,0,144,296,112.127,112.127,0,0,0,256,408Zm-40-24.741A96.274,96.274,0,0,1,192.577,368H216Zm80-174.518A96.274,96.274,0,0,1,319.423,224H296ZM296,240h37.926a96.076,96.076,0,0,1,9.333,16H296Zm0,32h52.963a95.553,95.553,0,0,1,2.7,16H296Zm0,32h55.664a95.553,95.553,0,0,1-2.7,16H296Zm0,32h47.259a96.076,96.076,0,0,1-9.333,16H296Zm0,32h23.423A96.274,96.274,0,0,1,296,383.259ZM232,203.038a96.318,96.318,0,0,1,48,0V224H232ZM232,240h48v16H232Zm0,32h48v16H232Zm0,32h48v16H232Zm0,32h48v16H232Zm0,32h48v20.962a96.318,96.318,0,0,1-48,0ZM216,208.741V224H192.577A96.274,96.274,0,0,1,216,208.741ZM178.074,240H216v16H168.741A96.076,96.076,0,0,1,178.074,240Zm-15.037,32H216v16H160.336A95.553,95.553,0,0,1,163.037,272Zm-2.7,32H216v16H163.037A95.553,95.553,0,0,1,160.336,304ZM216,336v16H178.074a96.076,96.076,0,0,1-9.333-16Z"/><path d="M160,464a24,24,0,1,0-24-24A24.027,24.027,0,0,0,160,464Zm0-32a8,8,0,1,1-8,8A8.009,8.009,0,0,1,160,432Z"/><path d="M328,440a24,24,0,1,0,24-24A24.027,24.027,0,0,0,328,440Zm32,0a8,8,0,1,1-8-8A8.009,8.009,0,0,1,360,440Z"/><path d="M245.6,72a8,8,0,0,0,16,0c0-1.785.292-2.271,1.26-3.885A21.432,21.432,0,0,0,266.4,56a21.435,21.435,0,0,0-3.54-12.116A5.888,5.888,0,0,1,261.6,40a5.888,5.888,0,0,1,1.26-3.884A21.431,21.431,0,0,0,266.4,24a8,8,0,0,0-16,0c0,1.784-.292,2.27-1.26,3.883A21.432,21.432,0,0,0,245.6,40a21.438,21.438,0,0,0,3.54,12.116,6.618,6.618,0,0,1,0,7.769A21.432,21.432,0,0,0,245.6,72Z"/><path d="M181.6,72a8,8,0,1,0,16,0c0-1.785.292-2.271,1.26-3.885A21.432,21.432,0,0,0,202.4,56a21.435,21.435,0,0,0-3.54-12.116A5.888,5.888,0,0,1,197.6,40a5.888,5.888,0,0,1,1.26-3.884A21.431,21.431,0,0,0,202.4,24a8,8,0,0,0-16,0c0,1.784-.292,2.27-1.26,3.883A21.432,21.432,0,0,0,181.6,40a21.438,21.438,0,0,0,3.54,12.116,6.618,6.618,0,0,1,0,7.769A21.432,21.432,0,0,0,181.6,72Z"/><path d="M309.6,72a8,8,0,0,0,16,0c0-1.785.292-2.271,1.26-3.885A21.432,21.432,0,0,0,330.4,56a21.435,21.435,0,0,0-3.54-12.116A5.888,5.888,0,0,1,325.6,40a5.888,5.888,0,0,1,1.26-3.884A21.431,21.431,0,0,0,330.4,24a8,8,0,0,0-16,0c0,1.784-.292,2.27-1.26,3.883A21.432,21.432,0,0,0,309.6,40a21.438,21.438,0,0,0,3.54,12.116,6.618,6.618,0,0,1,0,7.769A21.432,21.432,0,0,0,309.6,72Z"/></svg>
