<?xml version="1.0"?>
<svg xmlns="http://www.w3.org/2000/svg" xmlns:xlink="http://www.w3.org/1999/xlink" xmlns:svgjs="http://svgjs.com/svgjs" version="1.1" width="512" height="512" x="0" y="0" viewBox="0 0 512 512" style="enable-background:new 0 0 512 512" xml:space="preserve" class=""><g><g xmlns="http://www.w3.org/2000/svg"><path d="m491.854 240.937-238.216-240.937-233.492 240.937 235.854 221.57z" fill="#ff8b59" data-original="#ff8b59" style=""/><path d="m423.3 396.976h-332.615c-16.047 0-29.055-13.009-29.055-29.055v-338.866c-.001-16.046 13.008-29.055 29.055-29.055h332.615c16.047 0 29.055 13.009 29.055 29.055v338.865c.001 16.047-13.008 29.056-29.055 29.056z" fill="#79a6d4" data-original="#dceaff" style="" class=""/><g><path d="m306.464 305.455h-98.944c-4.27 0-7.73-3.461-7.73-7.73 0-4.27 3.461-7.73 7.73-7.73h98.944c4.27 0 7.73 3.461 7.73 7.73.001 4.269-3.46 7.73-7.73 7.73z" fill="#ffc269" data-original="#a4ccff" style="" class=""/></g><g><g fill="#a4ccff"><path d="m219.715 200.501h-13.973v-13.073h15.845c4.27 0 7.73-3.461 7.73-7.73 0-4.27-3.46-7.73-7.73-7.73h-23.576c-4.27 0-7.73 3.46-7.73 7.73v58.169c0 4.27 3.46 7.73 7.73 7.73s7.73-3.46 7.73-7.73v-21.905h13.973c4.27 0 7.73-3.461 7.73-7.73.002-4.271-3.459-7.731-7.729-7.731z" fill="#ffc269" data-original="#a4ccff" style="" class=""/><path d="m279.763 200.501h-13.973v-13.073h15.845c4.27 0 7.73-3.461 7.73-7.73 0-4.27-3.46-7.73-7.73-7.73h-23.575c-4.27 0-7.73 3.46-7.73 7.73v58.169c0 4.27 3.46 7.73 7.73 7.73s7.73-3.46 7.73-7.73v-21.905h13.973c4.27 0 7.73-3.461 7.73-7.73.001-4.271-3.46-7.731-7.73-7.731z" fill="#ffc269" data-original="#a4ccff" style="" class=""/><path d="m338.249 229.532h-16.735v-13.571h14.931c4.27 0 7.73-3.461 7.73-7.73 0-4.27-3.46-7.73-7.73-7.73h-14.931v-13.571h16.735c4.27 0 7.73-3.461 7.73-7.73s-3.46-7.73-7.73-7.73h-24.465c-4.27 0-7.73 3.461-7.73 7.73v58.063c0 4.27 3.46 7.73 7.73 7.73h24.465c4.27 0 7.73-3.461 7.73-7.73 0-4.27-3.46-7.731-7.73-7.731z" fill="#ffc269" data-original="#a4ccff" style="" class=""/><path d="m399.897 215.975c9.514-3.012 16.405-11.649 16.405-21.813 0-12.66-10.687-22.96-23.822-22.96h-15.571c-.003 0-.007 0-.01 0s-.006 0-.01 0c-4.27 0-7.73 3.461-7.73 7.73v58.599c0 4.27 3.461 7.73 7.73 7.73 4.27 0 7.73-3.46 7.73-7.73v-15.512l18.148 20.62c1.528 1.736 3.662 2.623 5.806 2.623 1.814 0 3.636-.635 5.104-1.927 3.205-2.82 3.516-7.705.696-10.91zm-7.417-29.312c4.532 0 8.361 3.435 8.361 7.499s-3.829 7.498-8.361 7.498c-1.827 0-4.869.012-7.776.026-.014-2.83-.026-5.765-.026-7.524 0-1.5-.007-4.532-.015-7.499z" fill="#ffc269" data-original="#a4ccff" style="" class=""/></g><g><path d="m132.728 245.812c-20.418 0-37.03-16.611-37.03-37.03s16.611-37.03 37.03-37.03 37.03 16.611 37.03 37.03-16.612 37.03-37.03 37.03zm0-58.599c-11.893 0-21.569 9.676-21.569 21.569s9.676 21.569 21.569 21.569 21.569-9.676 21.569-21.569-9.677-21.569-21.569-21.569z" fill="#ffc269" data-original="#a4ccff" style="" class=""/></g></g><path d="m493.686 245.073v237.17c0 16.44-13.327 29.757-29.757 29.757h-415.857c-16.43 0-29.757-13.317-29.757-29.757v-237.067c0-4.371 4.741-7.092 8.524-4.896l224.266 130.531c.289.165.587.32.897.453 2.845 1.288 6.153 1.144 8.895-.453l10.524-6.122 213.834-124.46c3.74-2.175 8.431.515 8.431 4.844z" fill="#0e4e88" data-original="#fee07d" style="" class=""/><g><g><path d="m274.944 70.588h-35.902c-4.27 0-7.73-3.461-7.73-7.73v-15.974c0-10.021 8.153-18.175 18.175-18.175h15.014c10.021 0 18.175 8.153 18.175 18.175v15.974c-.002 4.27-3.463 7.73-7.732 7.73zm-28.172-4.044h20.441v-19.66c0-1.497-1.217-2.714-2.714-2.714h-15.014c-1.497 0-2.714 1.217-2.714 2.714v19.66z" fill="#ffc269" data-original="#633c3e" style="" class=""/></g><path d="m301.871 139.576h-89.757c-4.997 0-9.048-4.051-9.048-9.048v-58.622c0-4.997 4.051-9.048 9.048-9.048h89.757c4.997 0 9.048 4.051 9.048 9.048v58.621c0 4.998-4.051 9.049-9.048 9.049z" fill="#7c5757" data-original="#7c5757" style="" class=""/></g><g><path d="m440.984 472.327c-1.432 2.464-4.02 3.834-6.689 3.834-1.319 0-2.659-.33-3.876-1.041l-178.418-103.855c2.845 1.288 6.153 1.144 8.895-.453l10.524-6.122 166.771 97.063c3.69 2.153 4.948 6.884 2.793 10.574z" fill="#ffc269" data-original="#ffc269" style="" class=""/></g></g></g></svg>
