<svg height="682pt" viewBox="-21 -36 682.66669 682" width="682pt" xmlns="http://www.w3.org/2000/svg"><path d="m640 277.230469-320-277.898438-320 277.898438 32.757812 37.71875 29.957032-26.015625v245.5625c0 41.320312 33.617187 74.933594 74.9375 74.933594h364.695312c41.320313 0 74.9375-33.613282 74.9375-74.933594v-245.5625l29.960938 26.015625zm-112.675781 257.265625c0 13.773437-11.207031 24.980468-24.976563 24.980468h-364.695312c-13.777344 0-24.980469-11.207031-24.980469-24.980468v-288.945313l207.328125-180.050781 207.324219 180.050781zm-276.015625-48.707032h49.957031v-74.9375h37.46875c41.320313 0 74.9375-33.617187 74.9375-74.941406 0-41.316406-33.617187-74.9375-74.9375-74.9375h-87.425781zm49.957031-174.855468h37.46875c13.769531 0 24.976563 11.207031 24.976563 24.976562 0 13.773438-11.207032 24.980469-24.976563 24.980469h-37.46875zm0 0"/></svg>