<?xml version="1.0"?>
<svg xmlns="http://www.w3.org/2000/svg" viewBox="0 0 512 512" width="512" height="512"><g id="outline"><path d="M392,280a8,8,0,0,0,8-8V256a8,8,0,0,0-16,0v16A8,8,0,0,0,392,280Z"/><path d="M392,328a8,8,0,0,0-8,8v16a8,8,0,0,0,16,0V336A8,8,0,0,0,392,328Z"/><path d="M365.659,469.655A23.858,23.858,0,0,0,376,472h96a24.027,24.027,0,0,0,24-24V240a24.027,24.027,0,0,0-24-24H376a24.027,24.027,0,0,0-24,24v40H336V264a8,8,0,0,0-8-8H280a8,8,0,0,0-8,8v16H256V264a7.975,7.975,0,0,0-2.35-5.663A23.875,23.875,0,0,0,256,248h16a8,8,0,0,0,0-16H256a8,8,0,0,0-8-8H200a8,8,0,0,0-8,8v15.983a23.872,23.872,0,0,0,2.35,10.354A7.975,7.975,0,0,0,192,264v16H152V264h8a8,8,0,0,0,0-16h-8v-8a24,24,0,0,0-48,0v16a8,8,0,0,0,16,0V240a8,8,0,0,1,16,0v40H72V264a24,24,0,0,0-48,0v16a8,8,0,0,0-8,8V464a8,8,0,0,0,8,8H360A7.975,7.975,0,0,0,365.659,469.655ZM472,456H376a8.009,8.009,0,0,1-8-8V312H480V448A8.009,8.009,0,0,1,472,456ZM368,240a8.009,8.009,0,0,1,8-8h96a8.009,8.009,0,0,1,8,8v56H368Zm-48,56v32H208V296ZM208,344H320v80H208Zm80-72h32v8H288Zm-80,8v-8h32v8Zm0-40h32v7.983A8.026,8.026,0,0,1,231.983,256H216.017A8.026,8.026,0,0,1,208,247.983ZM40,264a8,8,0,0,1,16,0v16H40ZM352,456H32V296H192V432a8,8,0,0,0,8,8H328a8,8,0,0,0,8-8V296h16Z"/><path d="M280,360H248a8,8,0,0,0,0,16h32a8,8,0,0,0,0-16Z"/><path d="M168,376H56a8,8,0,0,0-8,8v48a8,8,0,0,0,8,8H168a8,8,0,0,0,8-8V384A8,8,0,0,0,168,376Zm-8,48H64V392h96Z"/><path d="M168,312H56a8,8,0,0,0-8,8v32a8,8,0,0,0,8,8H168a8,8,0,0,0,8-8V320A8,8,0,0,0,168,312Zm-8,32H64V328h96Z"/><path d="M320,104a8,8,0,0,0,8-8V80a8,8,0,0,0-16,0V96A8,8,0,0,0,320,104Z"/><path d="M416,104a8,8,0,0,0,8-8V80a8,8,0,0,0-16,0V96A8,8,0,0,0,416,104Z"/><path d="M24,88H96v32H88a8,8,0,0,0-7.155,4.422l-24,48A8,8,0,0,0,64,184h80a8,8,0,0,0,7.155-11.578l-24-48A8,8,0,0,0,120,120h-8V88H216v32h-8a8,8,0,0,0-7.155,4.422l-24,48A8,8,0,0,0,184,184h80a8,8,0,0,0,7.155-11.578l-24-48A8,8,0,0,0,240,120h-8V88h56v64a8,8,0,0,0,8,8H488a8,8,0,0,0,8-8V48a8,8,0,0,0-8-8H24a8,8,0,0,0-8,8V80A8,8,0,0,0,24,88Zm107.056,80H76.944l16-32h22.112Zm120,0H196.944l16-32h22.112ZM304,56h72v64H304V56Zm176,88H304v-8H480Zm0-24H392V56h88ZM32,56H288V72H32Z"/><circle cx="232" cy="312" r="8"/><circle cx="264" cy="312" r="8"/><circle cx="296" cy="312" r="8"/></g></svg>
