<?xml version="1.0" encoding="iso-8859-1"?>
<!-- Generator: Adobe Illustrator 19.0.0, SVG Export Plug-In . SVG Version: 6.00 Build 0)  -->
<svg version="1.1" id="Capa_1" xmlns="http://www.w3.org/2000/svg" xmlns:xlink="http://www.w3.org/1999/xlink" x="0px" y="0px"
	 viewBox="0 0 512.001 512.001" style="enable-background:new 0 0 512.001 512.001;" xml:space="preserve">
<g>
	<g>
		<path d="M281.958,89.206c2.339-6.021,3.559-12.448,3.559-18.981c0-28.927-23.533-52.46-52.46-52.46
			c-6.198,0-12.331,1.102-18.104,3.225C203.959,7.893,187.506,0.044,170.189,0.044c-17.559,0-33.718,7.653-44.719,20.84
			c-5.69-2.055-11.724-3.12-17.813-3.12c-28.927,0-52.46,23.533-52.46,52.46c0,6.483,1.208,12.858,3.511,18.839
			c-17.302,20.51-26.794,46.043-26.794,72.303c0,19.991,5.773,38.826,17.159,55.98c1.848,2.784,3.867,5.552,6.001,8.227
			c1.975,2.477,4.885,3.765,7.824,3.765c2.186,0,4.388-0.713,6.229-2.183c4.317-3.443,5.026-9.735,1.582-14.053
			c-1.772-2.223-3.445-4.516-4.973-6.816c-9.172-13.819-13.823-28.932-13.823-44.919c0-21.403,7.311-41.488,21.193-58.355H267.07
			c0.118,0,0.236-0.011,0.354-0.015c13.889,16.872,21.208,36.965,21.208,58.371c0,16.385-4.882,31.841-14.509,45.938
			c-2.031,2.973-4.294,5.914-6.728,8.743c-3.602,4.187-3.128,10.5,1.059,14.103c1.888,1.624,4.208,2.419,6.517,2.419
			c2.812,0,5.607-1.18,7.585-3.479c2.915-3.388,5.634-6.922,8.082-10.506c11.94-17.483,17.994-36.733,17.994-57.218
			C308.632,135.173,299.182,109.69,281.958,89.206z M262.896,83.011H77.819c-1.725-4.02-2.623-8.364-2.623-12.787
			c0-17.899,14.562-32.46,32.461-32.46c5.665,0,11.249,1.489,16.148,4.308c4.712,2.711,10.728,1.16,13.542-3.491
			c7.023-11.606,19.3-18.536,32.842-18.536c13.595,0,25.897,6.973,32.908,18.651c2.819,4.697,8.892,6.253,13.62,3.487
			c4.946-2.891,10.597-4.419,16.342-4.419c17.898,0,32.46,14.562,32.46,32.46C265.519,74.647,264.621,78.991,262.896,83.011z"/>
	</g>
</g>
<g>
	<g>
		<path d="M188.722,444.96c-5.523,0-10,4.478-10,10c0,5.522,4.477,10,10,10h0.072c5.523,0,9.964-4.478,9.964-10
			C198.758,449.438,194.245,444.96,188.722,444.96z"/>
	</g>
</g>
<g>
	<g>
		<path d="M156.013,444.96h-50.756c-5.523,0-10,4.478-10,10c0,5.522,4.477,10,10,10h50.756c5.523,0,10-4.478,10-10
			C166.013,449.439,161.536,444.96,156.013,444.96z"/>
	</g>
</g>
<g>
	<g>
		<path d="M497.803,440.004c8.686-7.518,14.197-18.612,14.197-30.975c0-12.374-5.521-23.476-14.22-30.996
			c8.7-7.532,14.22-18.644,14.22-31.028c0-22.634-18.414-41.047-41.046-41.047h-48.441c-5.523,0-10,4.478-10,10
			c0,5.522,4.477,10,10,10h48.441c11.605,0,21.046,9.441,21.046,21.047c0,11.606-9.441,21.047-21.046,21.047h-14.157h-15.176H320.32
			h-20.674c-11.605,0-21.047-9.441-21.047-21.047c0-11.606,9.441-21.047,21.047-21.047h46.367c5.523,0,10-4.478,10-10
			c0-5.522-4.477-10-10-10h-46.367c-22.164,0-40.269,17.659-41.011,39.646l-43.513-13.542c0.066-0.992,0.111-1.99,0.111-2.999
			v-22.435c25.853-15.364,43.215-43.547,43.215-75.709v-70.606c0-5.522-4.477-10-10-10H92.125c-5.523,0-10,4.478-10,10v70.606
			c0,32.08,17.274,60.204,43.02,75.593v22.55c0,1.024,0.047,2.037,0.115,3.044l-22.918,7.124c-0.04,0.012-0.08,0.024-0.12,0.037
			L42.94,357.694C17.256,365.676,0,389.111,0,416.007v85.951c0,5.522,4.477,10,10,10h461.024c22.595,0,40.977-18.382,40.977-40.977
			C512.001,458.616,506.489,447.524,497.803,440.004z M102.125,230.918v-60.606H238.45v60.606c0,37.517-30.578,68.039-68.163,68.039
			S102.125,268.436,102.125,230.918z M195.234,315.363v13.7c0,2.367-0.34,4.656-0.961,6.827c-0.015,0.048-0.036,0.092-0.051,0.14
			c-0.041,0.132-0.067,0.265-0.102,0.398c-3.158,10.159-12.672,17.56-23.888,17.56c-11.225,0-20.751-7.363-23.944-17.482
			c-0.038-0.143-0.065-0.286-0.11-0.429c-0.02-0.064-0.048-0.124-0.069-0.188c-0.623-2.171-0.964-4.459-0.964-6.826v-13.758
			c7.971,2.373,16.409,3.653,25.142,3.653C178.949,318.957,187.32,317.697,195.234,315.363z M115.254,356.161l15.797-4.91
			c7.768,13.565,22.415,22.737,39.18,22.737c16.749,0,31.379-9.188,39.128-22.774l15.933,4.959v48.678H115.254V356.161z
			 M49.155,491.957H20v-75.951c0-18.087,11.604-33.847,28.876-39.215l0.279-0.087V491.957z M274.909,491.957H69.156V370.488
			l26.098-8.112v52.474c0,5.522,4.477,10,10,10h130.039c5.523,0,10-4.478,10-10v-52.454l19.352,6.023
			c3.763,6.127,9.086,11.198,15.415,14.649c-13.092,11.315-21.401,28.022-21.401,46.644v20.583
			C258.658,466.345,264.826,480.977,274.909,491.957z M328.617,440.004c0,5.522,4.477,10,10,10h118.18h14.227
			c11.566,0,20.977,9.41,20.977,20.977c0,11.567-9.41,20.977-20.977,20.977h-14.227c-0.056,0-0.11,0.007-0.166,0.008
			c-0.056-0.001-0.11-0.008-0.166-0.008H330.377H320.32c-22.973,0-41.662-18.689-41.662-41.662v-20.583
			c0-22.972,18.689-41.661,41.662-41.661h121.301h15.176h14.157h0.07c11.566,0,20.977,9.41,20.977,20.977
			c0,11.567-9.41,20.977-20.977,20.977h-14.227h-118.18v-0.002C333.094,430.004,328.617,434.483,328.617,440.004z"/>
	</g>
</g>
<g>
	<g>
		<path d="M392.373,308.89c-1.86-1.87-4.44-2.93-7.07-2.93c-2.64,0-5.21,1.06-7.07,2.93c-1.86,1.86-2.93,4.43-2.93,7.07
			c0,2.63,1.07,5.21,2.93,7.07c1.86,1.86,4.43,2.93,7.07,2.93c2.63,0,5.21-1.07,7.07-2.93c1.86-1.86,2.93-4.44,2.93-7.07
			C395.303,313.319,394.233,310.751,392.373,308.89z"/>
	</g>
</g>
<g>
	<g>
		<path d="M196.521,249.725c-3.905-3.904-10.237-3.904-14.143,0c-6.628,6.629-17.413,6.629-24.041,0
			c-3.905-3.904-10.237-3.904-14.143,0c-3.905,3.905-3.905,10.237,0,14.143c7.213,7.213,16.688,10.819,26.163,10.819
			s18.95-3.606,26.164-10.819C200.426,259.964,200.426,253.632,196.521,249.725z"/>
	</g>
</g>
<g>
</g>
<g>
</g>
<g>
</g>
<g>
</g>
<g>
</g>
<g>
</g>
<g>
</g>
<g>
</g>
<g>
</g>
<g>
</g>
<g>
</g>
<g>
</g>
<g>
</g>
<g>
</g>
<g>
</g>
</svg>
