<svg id="_x33_0" enable-background="new 0 0 64 64" height="512" viewBox="0 0 64 64" width="512" xmlns="http://www.w3.org/2000/svg"><g><path d="m21 17c0 2.206 1.794 4 4 4s4-1.794 4-4-1.794-4-4-4-4 1.794-4 4zm6 0c0 1.103-.897 2-2 2s-2-.897-2-2 .897-2 2-2 2 .897 2 2z"/><path d="m63 31v-6h-2.465l-8-12h-14.121l-11-11c-1.289-1.29-3.539-1.29-4.828 0l-20.879 20.879c-.456.456-.707 1.062-.707 1.707 0 1.331 1.083 2.414 2.414 2.414h1.586v22h-1c-1.654 0-3 1.346-3 3v8c0 1.654 1.346 3 3 3h24.303l6-4h17.283l1.121 1.121c.566.567 1.32.879 2.122.879h5.171c1.654 0 3-1.346 3-3v-4c0-1.302-.839-2.402-2-2.816v-20.184zm-2-2h-16v-2h16zm-10 28h-16v-2h16zm-24-6v2h-14c-1.103 0-2 .897-2 2v2c0 1.103.897 2 2 2h14v2h-18v-10zm-6-2h-8v-16h8zm6 8h-14v-2h14zm2-5.132 4 2.667v2.93l-4 2.667zm22.465-36.868 6.667 10h-9.167c.023-.135.035-.273.035-.414 0-.645-.251-1.251-.707-1.707l-7.879-7.879zm-48.465 9.586c0-.109.044-.216.121-.293l20.879-20.879c.263-.263.628-.414 1-.414s.737.151 1 .414l20.879 20.879c.077.077.121.184.121.293 0 .228-.186.414-.414.414h-1.829l-19.757-19.757-19.757 19.757h-1.829c-.228 0-.414-.186-.414-.414zm38.929.414h-33.858l16.929-16.929zm-34.929 2h36v26h-8.697l-6-4h-5.303v-18h-12v18h-4zm-4 33v-8c0-.551.449-1 1-1h3v10h-3c-.551 0-1-.449-1-1zm58-2c0 .551-.449 1-1 1h-5.171c-.267 0-.519-.104-.708-.293l-1.121-1.121v-3.172l1.121-1.121c.189-.189.441-.293.708-.293h5.171c.551 0 1 .449 1 1zm-2-7h-4.171c-.801 0-1.555.312-2.122.879l-1.121 1.121h-6.586v-22h14z"/><path d="m39 31h-14v14h14zm-2 6h-4v-4h4zm-6-4v4h-4v-4zm-4 6h4v4h-4zm6 4v-4h4v4z"/><path d="m57 47v-12h-10v12zm-8-10h6v8h-6z"/></g></svg>