<svg id="Capa_1" enable-background="new 0 0 512 512" height="512" viewBox="0 0 512 512" width="512" xmlns="http://www.w3.org/2000/svg"><g><path d="m499.454 452.828h-51.477c-5.757 0-10.458-1.248-14.79-3.923-15.606-9.659-28.039-40.592-35.468-59.074-.834-2.074-1.67-4.146-2.514-6.216-12.223-29.975-27.434-67.279-57.653-86.537-13.529-8.646-28.908-13.029-45.708-13.029h-20.223v-85.409c7.186-.019 13.933-2.819 18.997-7.883 5.09-5.071 7.897-11.838 7.904-19.054.007-7.229-2.796-14.019-7.903-19.125l-55.899-55.703c-2.934-2.924-7.683-2.917-10.606.019-2.924 2.934-2.916 7.683.019 10.606l55.89 55.693c2.26 2.261 3.504 5.278 3.5 8.496-.003 3.204-1.243 6.202-3.5 8.452-4.673 4.672-12.274 4.672-16.947 0l-108.512-108.486c-2.929-2.929-7.677-2.929-10.605 0l-108.512 108.486c-2.258 2.258-5.27 3.501-8.483 3.501-.004 0-.008 0-.012 0-3.204-.003-6.201-1.243-8.461-3.511-2.249-2.24-3.488-5.238-3.491-8.442-.003-3.218 1.24-6.235 3.501-8.496l122.297-122.3c2.24-2.248 5.238-3.488 8.441-3.491h.012c3.213 0 6.226 1.243 8.484 3.501l43.313 43.315c2.928 2.929 7.677 2.929 10.606 0s2.929-7.677 0-10.606l-43.313-43.315c-5.092-5.091-11.87-7.894-19.09-7.894-.009 0-.018 0-.026 0-7.215.007-13.982 2.813-19.043 7.894l-122.287 122.29c-5.098 5.098-7.902 11.886-7.895 19.116.007 7.215 2.814 13.982 7.884 19.034 5.063 5.082 11.815 7.887 19.017 7.903v132.111 161.28h-19.401c-4.142 0-7.5 3.358-7.5 7.5s3.358 7.5 7.5 7.5h492.266c6.746 0 12.234-5.476 12.234-12.206v-29.453c0-6.916-5.628-12.544-12.546-12.544zm-439.416 39.204h-18.137v-153.78h18.137zm51.563 0h-36.563v-153.78h29.152 7.411zm60.321 0h-45.321v-23.949h45.321zm0-38.949h-45.321v-28.258h45.321zm0-43.258h-45.321v-28.286h45.321zm0-43.286h-45.321v-28.287h45.321zm14.91-43.287h-75.142v-37.175c0-20.717 16.854-37.572 37.571-37.572s37.571 16.855 37.571 37.572zm36.624 168.78h-36.534v-153.78h7.41 29.124zm-21.624-168.78v-37.175c0-28.988-23.583-52.572-52.571-52.572s-52.571 23.583-52.571 52.572v37.175h-29.152-25.637v-129.1c1.478-.984 2.869-2.121 4.152-3.405l103.208-103.183 103.207 103.183c1.284 1.284 2.675 2.421 4.153 3.406v129.099h-25.665zm69.789 168.78v-49.648c0-4.142-3.358-7.5-7.5-7.5s-7.5 3.358-7.5 7.5v49.648h-18.165v-153.78h18.165v69.52c0 4.142 3.358 7.5 7.5 7.5s7.5-3.358 7.5-7.5v-69.52h20.223c6.445 0 11.704 1.438 16.548 4.522 15.878 10.122 27.702 39.308 35.525 58.621.968 2.387 1.938 4.773 2.908 7.16 11.615 28.618 25.929 63.883 53.38 83.477zm225.379 0h-49.023c-12.994 0-24.915-3.295-35.424-9.79-26.223-16.241-39.826-49.758-51.829-79.329-.968-2.383-1.938-4.766-2.904-7.15-8.54-21.082-21.446-52.94-41.368-65.64-7.261-4.624-15.31-6.872-24.608-6.872h-20.223v-24.204h20.223c13.892 0 26.553 3.589 37.639 10.674 26.202 16.698 39.819 50.092 51.833 79.556.834 2.046 1.661 4.095 2.485 6.146 8.641 21.498 21.698 53.985 41.497 66.239 6.716 4.148 14.135 6.165 22.679 6.165h49.023z"/><path d="m343.945 155.157h109.843c32.098 0 58.212-26.102 58.212-58.185 0-32.099-26.114-58.213-58.212-58.213-.381 0-.764.004-1.147.012-11.733-20.691-33.956-33.803-57.984-33.803-36.756 0-66.659 29.892-66.659 66.633 0 1.36.042 2.729.126 4.098-15.276 6.281-25.468 21.151-25.468 38.167 0 22.768 18.522 41.291 41.289 41.291zm-6.006-66.898c3.827-.893 6.315-4.588 5.704-8.47-.428-2.721-.646-5.476-.646-8.188 0-28.47 23.174-51.633 51.659-51.633 19.972 0 38.333 11.688 46.779 29.775 1.357 2.905 4.412 4.626 7.598 4.284 1.683-.181 3.237-.269 4.754-.269 23.827 0 43.212 19.385 43.212 43.213 0 23.812-19.385 43.185-43.212 43.185h-109.842c-14.496 0-26.289-11.793-26.289-26.29 0-12.289 8.341-22.819 20.283-25.607z"/><path d="m149.261 144.465c-18.39 0-33.352 14.962-33.352 33.353s14.962 33.353 33.352 33.353 33.352-14.962 33.352-33.353-14.962-33.353-33.352-33.353zm0 51.706c-10.119 0-18.352-8.233-18.352-18.353s8.233-18.353 18.352-18.353 18.352 8.233 18.352 18.353-8.233 18.353-18.352 18.353z"/></g></svg>