<svg id="Capa_1" enable-background="new 0 0 512 512" height="512" viewBox="0 0 512 512" width="512" xmlns="http://www.w3.org/2000/svg"><g id="XMLID_1155_"><path id="XMLID_1156_" d="m447.996 478.724c-11.699 0-16.881-3.238-24.053-7.72-8.754-5.472-19.648-12.28-39.951-12.28s-31.197 6.809-39.951 12.28c-7.171 4.481-12.353 7.72-24.051 7.72-11.697 0-16.878-3.238-24.049-7.72-8.754-5.472-19.648-12.28-39.95-12.28-20.301 0-31.195 6.81-39.948 12.28-7.17 4.481-12.351 7.72-24.048 7.72s-16.878-3.238-24.049-7.72c-8.754-5.472-19.648-12.28-39.95-12.28s-31.196 6.809-39.95 12.28c-7.171 4.481-12.352 7.72-24.049 7.72s-16.878-3.238-24.049-7.72c-8.753-5.472-19.647-12.28-39.948-12.28v30c11.697 0 16.877 3.238 24.048 7.72 8.754 5.471 19.647 12.28 39.949 12.28s31.195-6.809 39.949-12.28c7.171-4.481 12.352-7.72 24.05-7.72s16.879 3.238 24.05 7.72c8.754 5.472 19.647 12.28 39.949 12.28 20.301 0 31.195-6.81 39.948-12.28 7.17-4.481 12.351-7.72 24.048-7.72 11.698 0 16.879 3.238 24.05 7.72 8.754 5.472 19.647 12.28 39.949 12.28 20.303 0 31.197-6.809 39.951-12.28 7.171-4.481 12.353-7.72 24.051-7.72 11.699 0 16.881 3.238 24.053 7.72 8.754 5.472 19.648 12.28 39.951 12.28s31.197-6.809 39.951-12.28c7.172-4.481 12.354-7.72 24.053-7.72v-30c-20.303 0-31.197 6.809-39.951 12.28-7.172 4.482-12.354 7.72-24.053 7.72z"/><path id="XMLID_1172_" d="m472.049 398.798c-7.172 4.481-12.354 7.72-24.053 7.72-9.024 0-14.171-1.931-19.344-4.869l20.098-72.373h-65.551l-116.338-236.491v-89.509h-30v24.299l-8.012 7.178c-73.433 65.795-115.159 154.812-117.495 250.657l-.375 15.365h125.882v28.5h-183.391l28.751 72.99c-4.816 2.588-9.849 4.253-18.224 4.253-11.697 0-16.878-3.238-24.049-7.72-8.753-5.472-19.647-12.28-39.948-12.28v30c11.697 0 16.877 3.238 24.048 7.72 8.754 5.471 19.647 12.28 39.949 12.28s31.195-6.809 39.949-12.28c7.171-4.481 12.352-7.72 24.05-7.72s16.879 3.238 24.05 7.72c8.754 5.472 19.647 12.28 39.949 12.28 20.301 0 31.195-6.81 39.948-12.28 7.17-4.481 12.351-7.72 24.048-7.72 11.698 0 16.879 3.238 24.05 7.72 8.754 5.472 19.647 12.28 39.949 12.28 20.303 0 31.197-6.809 39.951-12.28 7.171-4.481 12.353-7.72 24.051-7.72 11.699 0 16.881 3.238 24.053 7.72 8.754 5.472 19.648 12.28 39.951 12.28s31.197-6.809 39.951-12.28c7.172-4.481 12.354-7.72 24.053-7.72v-30c-20.303 0-31.197 6.809-39.951 12.28zm-329.955-128.022c5.585-76.307 38.775-147.167 94.768-202.383v202.383zm124.767-110.026 82.904 168.526h-82.904zm77.18 238.048c-7.171 4.481-12.353 7.72-24.051 7.72-11.697 0-16.878-3.238-24.049-7.72-8.754-5.472-19.648-12.28-39.95-12.28-20.301 0-31.195 6.81-39.948 12.28-7.17 4.481-12.351 7.72-24.048 7.72s-16.878-3.238-24.049-7.72c-8.754-5.472-19.648-12.28-39.95-12.28-7.412 0-13.559.914-18.817 2.332l-11.649-29.574h311.753l-8.099 29.164c-4.894-1.179-10.529-1.921-17.192-1.921-20.303-.001-31.197 6.808-39.951 12.279z"/></g></svg>