<?xml version="1.0"?>
<svg xmlns="http://www.w3.org/2000/svg" xmlns:xlink="http://www.w3.org/1999/xlink" xmlns:svgjs="http://svgjs.com/svgjs" version="1.1" width="512" height="512" x="0" y="0" viewBox="0 0 60 60" style="enable-background:new 0 0 512 512" xml:space="preserve" class=""><g>
<g xmlns="http://www.w3.org/2000/svg">
	<path d="M44,16V0H0v44h16v16h44V16H44z M58,58H18V43v-1h-1H2V2h40v15v1c0,0.553,0.447,1,1,1s1-0.447,1-1h14V58z" fill="#144a86" data-original="#000000" style="" class=""/>
	<path d="M19,16h-1c-0.553,0-1,0.447-1,1s0.447,1,1,1h1c0.553,0,1-0.447,1-1S19.553,16,19,16z" fill="#144a86" data-original="#000000" style="" class=""/>
	<path d="M17,19c-0.553,0-1,0.447-1,1v1c0,0.553,0.447,1,1,1s1-0.447,1-1v-1C18,19.447,17.553,19,17,19z" fill="#144a86" data-original="#000000" style="" class=""/>
	<path d="M17,24c-0.553,0-1,0.447-1,1v1c0,0.553,0.447,1,1,1s1-0.447,1-1v-1C18,24.447,17.553,24,17,24z" fill="#144a86" data-original="#000000" style="" class=""/>
	<path d="M24,18c0.553,0,1-0.447,1-1s-0.447-1-1-1h-1c-0.553,0-1,0.447-1,1s0.447,1,1,1H24z" fill="#144a86" data-original="#000000" style="" class=""/>
	<path d="M25,42h-1c-0.553,0-1,0.447-1,1s0.447,1,1,1h1c0.553,0,1-0.447,1-1S25.553,42,25,42z" fill="#144a86" data-original="#000000" style="" class=""/>
	<path d="M29,18c0.553,0,1-0.447,1-1s-0.447-1-1-1h-1c-0.553,0-1,0.447-1,1s0.447,1,1,1H29z" fill="#144a86" data-original="#000000" style="" class=""/>
	<path d="M18,41v-1c0-0.553-0.447-1-1-1s-1,0.447-1,1v1c0,0.553,0.447,1,1,1S18,41.553,18,41z" fill="#144a86" data-original="#000000" style="" class=""/>
	<path d="M17,29c-0.553,0-1,0.447-1,1v1c0,0.553,0.447,1,1,1s1-0.447,1-1v-1C18,29.447,17.553,29,17,29z" fill="#144a86" data-original="#000000" style="" class=""/>
	<path d="M19,44h1c0.553,0,1-0.447,1-1s-0.447-1-1-1h-1c-0.553,0-1,0.447-1,1S18.447,44,19,44z" fill="#144a86" data-original="#000000" style="" class=""/>
	<path d="M17,34c-0.553,0-1,0.447-1,1v1c0,0.553,0.447,1,1,1s1-0.447,1-1v-1C18,34.447,17.553,34,17,34z" fill="#144a86" data-original="#000000" style="" class=""/>
	<path d="M43,26c-0.553,0-1,0.447-1,1v1c0,0.553,0.447,1,1,1s1-0.447,1-1v-1C44,26.447,43.553,26,43,26z" fill="#144a86" data-original="#000000" style="" class=""/>
	<path d="M43,36c-0.553,0-1,0.447-1,1v1c0,0.553,0.447,1,1,1s1-0.447,1-1v-1C44,36.447,43.553,36,43,36z" fill="#144a86" data-original="#000000" style="" class=""/>
	<path d="M43,31c-0.553,0-1,0.447-1,1v1c0,0.553,0.447,1,1,1s1-0.447,1-1v-1C44,31.447,43.553,31,43,31z" fill="#144a86" data-original="#000000" style="" class=""/>
	<path d="M43,21c-0.553,0-1,0.447-1,1v1c0,0.553,0.447,1,1,1s1-0.447,1-1v-1C44,21.447,43.553,21,43,21z" fill="#144a86" data-original="#000000" style="" class=""/>
	<path d="M43,41c-0.553,0-1,0.447-1,1v1c0,0.553,0.447,1,1,1s1-0.447,1-1v-1C44,41.447,43.553,41,43,41z" fill="#144a86" data-original="#000000" style="" class=""/>
	<path d="M35,42h-1c-0.553,0-1,0.447-1,1s0.447,1,1,1h1c0.553,0,1-0.447,1-1S35.553,42,35,42z" fill="#144a86" data-original="#000000" style="" class=""/>
	<path d="M40,42h-1c-0.553,0-1,0.447-1,1s0.447,1,1,1h1c0.553,0,1-0.447,1-1S40.553,42,40,42z" fill="#144a86" data-original="#000000" style="" class=""/>
	<path d="M30,42h-1c-0.553,0-1,0.447-1,1s0.447,1,1,1h1c0.553,0,1-0.447,1-1S30.553,42,30,42z" fill="#144a86" data-original="#000000" style="" class=""/>
	<path d="M34,18c0.553,0,1-0.447,1-1s-0.447-1-1-1h-1c-0.553,0-1,0.447-1,1s0.447,1,1,1H34z" fill="#144a86" data-original="#000000" style="" class=""/>
	<path d="M39,18c0.553,0,1-0.447,1-1s-0.447-1-1-1h-1c-0.553,0-1,0.447-1,1s0.447,1,1,1H39z" fill="#144a86" data-original="#000000" style="" class=""/>
</g>
<g xmlns="http://www.w3.org/2000/svg">
</g>
<g xmlns="http://www.w3.org/2000/svg">
</g>
<g xmlns="http://www.w3.org/2000/svg">
</g>
<g xmlns="http://www.w3.org/2000/svg">
</g>
<g xmlns="http://www.w3.org/2000/svg">
</g>
<g xmlns="http://www.w3.org/2000/svg">
</g>
<g xmlns="http://www.w3.org/2000/svg">
</g>
<g xmlns="http://www.w3.org/2000/svg">
</g>
<g xmlns="http://www.w3.org/2000/svg">
</g>
<g xmlns="http://www.w3.org/2000/svg">
</g>
<g xmlns="http://www.w3.org/2000/svg">
</g>
<g xmlns="http://www.w3.org/2000/svg">
</g>
<g xmlns="http://www.w3.org/2000/svg">
</g>
<g xmlns="http://www.w3.org/2000/svg">
</g>
<g xmlns="http://www.w3.org/2000/svg">
</g>
</g></svg>
