<?xml version="1.0" encoding="iso-8859-1"?>
<!-- Generator: Adobe Illustrator 19.0.0, SVG Export Plug-In . SVG Version: 6.00 Build 0)  -->
<svg version="1.1" id="Capa_1" xmlns="http://www.w3.org/2000/svg" xmlns:xlink="http://www.w3.org/1999/xlink" x="0px" y="0px"
	 viewBox="0 0 512 512" style="enable-background:new 0 0 512 512;" xml:space="preserve">
<g>
	<g>
		<path d="M424,0H88c-4.418,0-8,3.582-8,8v496c0,4.418,3.582,8,8,8h336c4.418,0,8-3.582,8-8V8C432,3.582,428.418,0,424,0z M248,496
			H96v-64h48c-4.418,0-8,3.582-8,8s3.582,8,8,8h56c4.418,0,8-3.582,8-8s-3.582-8-8-8h48V496z M248,416H96v-64h48
			c-4.418,0-8,3.582-8,8s3.582,8,8,8h56c4.418,0,8-3.582,8-8s-3.582-8-8-8h48V416z M248,336H96V16h152V336z M416,496H264v-64h48
			c-4.418,0-8,3.582-8,8s3.582,8,8,8h56c4.418,0,8-3.582,8-8s-3.582-8-8-8h48V496z M416,416H264v-64h48c-4.418,0-8,3.582-8,8
			s3.582,8,8,8h56c4.418,0,8-3.582,8-8s-3.582-8-8-8h48V416z M416,336H264V16h152V336z"/>
	</g>
</g>
<g>
	<g>
		<path d="M208,144c-4.418,0-8,3.582-8,8v72c0,4.418,3.582,8,8,8s8-3.582,8-8v-72C216,147.582,212.418,144,208,144z"/>
	</g>
</g>
<g>
	<g>
		<path d="M304,144c-4.418,0-8,3.582-8,8v72c0,4.418,3.582,8,8,8s8-3.582,8-8v-72C312,147.582,308.418,144,304,144z"/>
	</g>
</g>
<g>
</g>
<g>
</g>
<g>
</g>
<g>
</g>
<g>
</g>
<g>
</g>
<g>
</g>
<g>
</g>
<g>
</g>
<g>
</g>
<g>
</g>
<g>
</g>
<g>
</g>
<g>
</g>
<g>
</g>
</svg>
