<svg id="Line_cutting_stroke_ex" height="512" viewBox="0 0 512 512" width="512" xmlns="http://www.w3.org/2000/svg" data-name="Line cutting stroke ex"><g><path d="m32 127.8893a18.1 18.1 0 0 0 2 .1107h316a18.1 18.1 0 0 0 2-.1107v8.1107h16v-102a18.0206 18.0206 0 0 0 -18-18h-316a18.0206 18.0206 0 0 0 -18 18v126h16zm0-93.8893a2.0023 2.0023 0 0 1 2-2h316a2.0023 2.0023 0 0 1 2 2v76a2.0023 2.0023 0 0 1 -2 2h-316a2.0023 2.0023 0 0 1 -2-2z"/><path d="m309.3457 339.2031a128.0111 128.0111 0 1 0 -49.0732 57.0874l-8.545-13.5273a111.8358 111.8358 0 1 1 42.9561-49.9663z"/><path d="m192 104a32 32 0 1 0 -32-32 32.0364 32.0364 0 0 0 32 32zm0-48a16 16 0 1 1 -16 16 16.0183 16.0183 0 0 1 16-16z"/><path d="m136 80h16v16h-16z"/><path d="m136 48h16v16h-16z"/><path d="m232 80h16v16h-16z"/><path d="m232 48h16v16h-16z"/><path d="m264 104h72a8 8 0 0 0 8-8v-48a8 8 0 0 0 -8-8h-72a8 8 0 0 0 -8 8v48a8 8 0 0 0 8 8zm8-48h56v32h-56z"/><path d="m76 96h24a28.0314 28.0314 0 0 0 28-28v-12a8 8 0 0 0 -8-8h-64a8 8 0 0 0 -8 8v12a28.0314 28.0314 0 0 0 28 28zm-12-32h48v4a12.0134 12.0134 0 0 1 -12 12h-24a12.0134 12.0134 0 0 1 -12-12z"/><path d="m296 144h40v16h-40z"/><path d="m224 304h16v16h-16z"/><path d="m200 336h16v16h-16z"/><path d="m152 328h16v16h-16z"/><path d="m192 192a96 96 0 1 0 96 96 96.1087 96.1087 0 0 0 -96-96zm0 16a80.1448 80.1448 0 0 1 76.6772 57.1541 85.6794 85.6794 0 0 0 -18.2993-1.6673c-28.1093.2857-42.6084 11.9732-55.4 22.2847-12.3242 9.9341-22.9668 18.5137-45.5224 18.7427-17.9383.1851-28.5191-5.25-37.2925-11.384q-.1619-2.5446-.1626-5.13a80.09 80.09 0 0 1 79.9996-80.0002zm0 160a80.1411 80.1411 0 0 1 -75.6833-54.0587c8.59 3.9151 18.9091 6.5776 32.2673 6.5773.3418 0 .6875-.002 1.0332-.0054 28.11-.2857 42.6094-11.9732 55.4014-22.2852 12.3242-9.9336 22.9668-18.5132 45.5214-18.7422a64.2839 64.2839 0 0 1 21.2752 3.0521q.1834 2.7078.1848 5.4621a80.09 80.09 0 0 1 -80 80z"/><path d="m468 352h-20.1108a18.1 18.1 0 0 0 .1108-2v-128a38.0607 38.0607 0 0 0 -32-37.5261v-14.4739a18.0206 18.0206 0 0 0 -18-18h-28a18.0206 18.0206 0 0 0 -18 18v20.1117l-10.9336 21.8654a48.259 48.259 0 0 0 -5.0664 21.4658v116.5571a18.1 18.1 0 0 0 .1108 2h-36.1108a28.0314 28.0314 0 0 0 -28 28v24a27.9181 27.9181 0 0 0 8.4229 20 27.9181 27.9181 0 0 0 -8.4229 20v24a27.8338 27.8338 0 0 0 2.7041 12h-130.7041v-40a8 8 0 0 0 -8-8h-80a8 8 0 0 0 -8 8v40h-14a2.0023 2.0023 0 0 1 -2-2v-302h-16v302a18.0206 18.0206 0 0 0 18 18h398v-16h-132a12.0134 12.0134 0 0 1 -12-12v-24a12.0134 12.0134 0 0 1 12-12h168a12.0134 12.0134 0 0 1 12 12v24a12.0134 12.0134 0 0 1 -12 12h-20v16h20a28.0314 28.0314 0 0 0 28-28v-24a27.9181 27.9181 0 0 0 -8.4229-20 27.9181 27.9181 0 0 0 8.4229-20v-24a28.0314 28.0314 0 0 0 -28-28zm-404 128v-32h24v16h16v-16h24v32zm288-192h80v32h-80zm80-66v18h-4a12.0134 12.0134 0 0 1 -12-12v-27.1685a22.04 22.04 0 0 1 16 21.1685zm-64-52a2.0023 2.0023 0 0 1 2-2h28a2.0023 2.0023 0 0 1 2 2v14h-32zm-12.6221 49.1318 9.5664-19.1318h35.0557v28a28.0314 28.0314 0 0 0 28 28h4v16h-80v-38.5571a32.1706 32.1706 0 0 1 3.3779-14.3111zm-3.3779 130.8682v-14h80v14a2.0023 2.0023 0 0 1 -2 2h-76a2.0023 2.0023 0 0 1 -2-2zm-52 66a12.0134 12.0134 0 0 1 -12-12v-24a12.0134 12.0134 0 0 1 12-12h168a12.0134 12.0134 0 0 1 12 12v24a12.0134 12.0134 0 0 1 -12 12z"/><path d="m388.1611 59.019 16.045 8.7749 8.7753 16.045a8 8 0 0 0 14.0372 0l8.7753-16.045 16.045-8.7749a8 8 0 0 0 0-14.038l-16.045-8.7749-8.7753-16.045a8 8 0 0 0 -14.0372 0l-8.7753 16.045-16.045 8.7749a8 8 0 0 0 0 14.038zm25.7789-9.899a8 8 0 0 0 3.18-3.18l2.88-5.2676 2.8809 5.2671a8 8 0 0 0 3.18 3.18l5.2672 2.8805-5.2676 2.88a8 8 0 0 0 -3.18 3.18l-2.8805 5.2676-2.8809-5.2671a8 8 0 0 0 -3.18-3.18l-5.2672-2.8805z"/><path d="m452.9814 100.1611-8.7753 16.045-16.045 8.7749a8 8 0 0 0 0 14.038l16.045 8.7749 8.7753 16.045a8 8 0 0 0 14.0372 0l8.7753-16.045 16.045-8.7749a8 8 0 0 0 0-14.038l-16.045-8.7749-8.7753-16.045a8 8 0 0 0 -14.0372 0zm4.1377 25.7784 2.8809-5.2671 2.8809 5.2671a8 8 0 0 0 3.18 3.18l5.2676 2.88-5.2676 2.88a8 8 0 0 0 -3.18 3.18l-2.8809 5.2681-2.8809-5.2671a8 8 0 0 0 -3.18-3.18l-5.2672-2.8805 5.2676-2.88a8 8 0 0 0 3.1796-3.18z"/></g></svg>